<?xml version="1.0" encoding="UTF-8"?>
<svg version="1.1" xmlns="http://www.w3.org/2000/svg" width="512" height="512">
<path d="M0 0 C57.59804264 0 107.74730061 19.23949373 151 57 C151.5048291 57.44021484 152.0096582 57.88042969 152.52978516 58.33398438 C158.48777242 63.55967232 163.92653398 68.92252176 169 75 C169.80824219 75.90878906 170.61648437 76.81757813 171.44921875 77.75390625 C207.239589 118.257813 224 170.59874849 224 224 C150.08 224 76.16 224 0 224 C0 150.08 0 76.16 0 0 Z " fill="#87C7FD" transform="translate(40,248)"/>
<path d="M0 0 C5.49397047 3.29825451 10.12093115 7.83543186 14.59960938 12.37255859 C15.20549896 12.97815613 15.81138855 13.58375366 16.43563843 14.20770264 C18.40979535 16.18323761 20.37679912 18.16573002 22.34375 20.1484375 C23.72193236 21.53035541 25.10056096 22.91182842 26.47961426 24.2928772 C30.0875867 27.90844333 33.68950929 31.5299774 37.29016113 35.15283203 C40.97362606 38.8568477 44.66284172 42.55512602 48.3515625 46.25390625 C55.57331495 53.49703331 62.78868252 60.74648477 70 68 C71.14626322 67.02133662 72.29199788 66.04205413 73.4375 65.0625 C74.07558594 64.51722656 74.71367187 63.97195312 75.37109375 63.41015625 C76.26991149 62.63204305 77.15936528 61.84063472 78 61 C81.48484863 60.25374959 84.5033771 60.33922551 88 61 C90.16821289 62.47167969 90.16821289 62.47167969 92.34765625 64.546875 C93.21140869 65.36397949 94.07516113 66.18108398 94.96508789 67.02294922 C95.97851761 68.01346899 96.99000234 69.00598092 98 70 C98.5866745 70.57349182 99.173349 71.14698364 99.77780151 71.737854 C103.84211118 75.71787278 107.87290575 79.7303272 111.88916016 83.75878906 C114.02001163 85.89506255 116.15623752 88.02585921 118.29296875 90.15625 C119.6539671 91.51790813 121.01465576 92.87987589 122.375 94.2421875 C123.01139404 94.87655731 123.64778809 95.51092712 124.3034668 96.16452026 C124.89168213 96.75588776 125.47989746 97.34725525 126.0859375 97.95654297 C126.6020459 98.47344696 127.1181543 98.99035095 127.64990234 99.5229187 C131.21880849 103.42749887 131.58735816 106.32810505 131.53515625 111.4140625 C130.59473276 115.95829864 127.46681946 118.19558048 124 121 C127.82160466 125.57521094 131.77936732 129.9096517 136.03369141 134.08374023 C136.60360306 134.64737274 137.17351471 135.21100525 137.76069641 135.79171753 C138.98564165 137.00292263 140.2116653 138.2130379 141.43867874 139.42214775 C143.38447667 141.34105302 145.32565326 143.26452032 147.26547241 145.18946838 C152.7765883 150.65807908 158.2903623 156.12391378 163.8203125 161.57348633 C167.2140472 164.91855293 170.59781229 168.2734305 173.97538376 171.63481331 C175.25787653 172.90745042 176.54400601 174.17643411 177.8339119 175.44155693 C179.64040618 177.21408888 181.43389729 178.99889742 183.22509766 180.78686523 C183.75298386 181.29879929 184.28087006 181.81073334 184.82475281 182.33818054 C189.02106321 186.56897506 192.40710076 191.49801572 193.41796875 197.46875 C192.22242414 208.00575331 182.01454512 215.17189156 174.86499023 222.3203125 C173.2996661 223.88785207 171.74255709 225.46326961 170.18554688 227.0390625 C169.18278058 228.04475855 168.17954237 229.04998435 167.17578125 230.0546875 C166.27770752 230.95687012 165.37963379 231.85905273 164.4543457 232.78857422 C160.91551389 235.97714863 158.31583304 237.28778596 153.5625 237.3125 C152.82128906 237.32925781 152.08007812 237.34601563 151.31640625 237.36328125 C145.37383049 236.431309 141.41070809 231.68620528 137.3737793 227.60083008 C136.72931351 226.95665634 136.08484772 226.3124826 135.42085266 225.64878845 C133.30053047 223.52707748 131.1873728 221.39837953 129.07421875 219.26953125 C127.60206573 217.79364651 126.12946934 216.3182039 124.65644836 214.84318542 C120.78705348 210.96616669 116.92370332 207.08317863 113.06158447 203.19891357 C109.11695761 199.23380146 105.16663913 195.27436874 101.21679688 191.31445312 C93.47228596 183.54851431 85.73414952 175.77625689 78 168 C77.31164062 168.61488281 77.31164062 168.61488281 76.609375 169.2421875 C75.99578125 169.78101563 75.3821875 170.31984375 74.75 170.875 C74.14671875 171.40867188 73.5434375 171.94234375 72.921875 172.4921875 C69.55308111 175.13518433 67.59719172 175.98444813 63.25 176.09765625 C57.69832123 175.22344709 54.65224103 171.42011274 51 167.4375 C50.32066406 166.72658203 49.64132812 166.01566406 48.94140625 165.28320312 C47.27721626 163.5369756 45.63161354 161.77661045 44 160 C39.73566251 163.60912359 35.53010657 167.25269881 31.5 171.125 C30.6234375 171.95257813 29.746875 172.78015625 28.84375 173.6328125 C26.78286754 175.76512239 26.78286754 175.76512239 27.04296875 178.015625 C28.16047953 180.3327494 29.42010308 182.46061593 30.8125 184.625 C40.37296229 200.23812907 43.02261362 219.27227752 38.984375 237.171875 C36.12313983 247.87686017 36.12313983 247.87686017 32 252 C20.78 240.78 9.56 229.56 -2 218 C-6.07919833 219.63167933 -9.76454627 221.38932365 -13.62890625 223.44921875 C-14.25925278 223.78492386 -14.8895993 224.12062897 -15.53904724 224.46650696 C-16.87184125 225.1771694 -18.2039463 225.88912526 -19.53540039 226.60229492 C-21.53013162 227.67017163 -23.52756058 228.73285634 -25.52539062 229.79492188 C-32.69799116 233.62083598 -39.76267976 237.55638136 -46.72241211 241.76098633 C-49 243 -49 243 -51 243 C-49.53511662 239.12418135 -47.76166539 235.52954034 -45.8046875 231.87890625 C-45.49568008 231.3016832 -45.18667267 230.72446014 -44.86830139 230.12974548 C-44.21106674 228.90352455 -43.55253274 227.67799928 -42.89279175 226.453125 C-41.86970797 224.55266966 -40.85169631 222.64956065 -39.83422852 220.74609375 C-37.02693674 215.50873173 -34.21693651 210.28124099 -31.16015625 205.18359375 C-30.77424316 204.53898193 -30.38833008 203.89437012 -29.99072266 203.23022461 C-29.01868442 201.63336902 -28.02400077 200.05035706 -27.02734375 198.46875 C-25.7086579 196.09688202 -25.7086579 196.09688202 -26.73800659 194.05767822 C-28.04053094 191.93391437 -29.39791562 190.36112309 -31.16455078 188.60839844 C-32.12532028 187.64785553 -32.12532028 187.64785553 -33.10549927 186.66790771 C-33.79513763 185.98859192 -34.484776 185.30927612 -35.1953125 184.609375 C-35.90275604 183.90476135 -36.61019958 183.20014771 -37.33908081 182.47418213 C-39.59639862 180.2280461 -41.86057633 177.98896991 -44.125 175.75 C-45.65800953 174.22702283 -47.19056715 172.70359061 -48.72265625 171.1796875 C-52.47654573 167.44783185 -56.23608914 163.72174649 -60 160 C-57.2688034 157.06203145 -54.97171202 156.09328535 -51.125 154.875 C-49.58199219 154.37613281 -49.58199219 154.37613281 -48.0078125 153.8671875 C-30.47200718 148.81140986 -10.6624782 151.09568512 5.3125 159.625 C8.23678448 161.27238289 10.63020894 162.63020894 13 165 C16.54399257 164.69371213 18.25057141 163.10501726 20.671875 160.62109375 C21.33574219 159.94755859 21.99960937 159.27402344 22.68359375 158.58007812 C23.36550781 157.87302734 24.04742187 157.16597656 24.75 156.4375 C25.44738281 155.72658203 26.14476562 155.01566406 26.86328125 154.28320312 C28.5824658 152.52869286 30.29425872 150.76756648 32 149 C28.59702212 144.90668922 25.14872019 141.13232195 21.1875 137.5625 C18.34453028 134.74829557 16.42071536 132.75168376 15.75 128.75 C16.18353591 122.24696137 19.99378777 118.79431956 24 114 C23.15031143 113.15475266 22.30062286 112.30950531 21.42518616 111.43864441 C13.42941494 103.48336668 5.43889198 95.52285109 -2.54648495 87.5571394 C-6.65229205 83.46178213 -10.75994412 79.36831123 -14.87182617 75.27905273 C-18.83783176 71.33473261 -22.79897227 67.38558731 -26.75674629 63.43300819 C-28.26971726 61.92374071 -29.78445119 60.41623845 -31.30094719 58.91051292 C-33.42004844 56.80586929 -35.53286911 54.69511121 -37.64428711 52.58276367 C-38.27654205 51.95769928 -38.908797 51.33263489 -39.56021118 50.68862915 C-43.47095399 46.75913966 -45.13122051 44.21175391 -45.3125 38.6875 C-45.34988281 37.94886719 -45.38726562 37.21023437 -45.42578125 36.44921875 C-44.36971201 30.37439847 -39.07988136 25.77219218 -34.87890625 21.578125 C-34.2971312 20.99206482 -33.71535614 20.40600464 -33.11595154 19.80218506 C-31.89226065 18.57278294 -30.66598377 17.34594989 -29.43725586 16.12158203 C-27.56276092 14.25026048 -25.70202308 12.36596244 -23.84179688 10.48046875 C-22.64664432 9.28304417 -21.45070716 8.08640209 -20.25390625 6.890625 C-19.70166885 6.32917786 -19.14943146 5.76773071 -18.58045959 5.18927002 C-12.69490078 -0.62676127 -7.89892628 -2.10873703 0 0 Z M-8.5078125 15.3125 C-9.04148437 15.869375 -9.57515625 16.42625 -10.125 17 C-10.66382813 17.556875 -11.20265625 18.11375 -11.7578125 18.6875 C-12.16773438 19.120625 -12.57765625 19.55375 -13 20 C-11.4152642 23.86328627 -8.94043113 26.28876923 -5.9921875 29.203125 C-5.26396286 29.9271048 -5.26396286 29.9271048 -4.52102661 30.66571045 C-2.97700134 32.19858562 -1.42615176 33.72434004 0.125 35.25 C1.17624009 36.29120361 2.22702657 37.33286541 3.27734375 38.375 C5.84633004 40.92199464 8.42148161 43.46265177 11 46 C14.32759923 44.44805246 16.48580485 42.69378051 19 40 C17.41636918 36.16394511 14.97385878 33.71554351 12.0625 30.796875 C11.58176025 30.3142218 11.10102051 29.8315686 10.60571289 29.33428955 C9.59278907 28.32000936 8.57735362 27.30823196 7.55957031 26.29882812 C5.99826835 24.74828028 4.44797503 23.18729497 2.8984375 21.625 C1.91209939 20.63998266 0.9251415 19.65558547 -0.0625 18.671875 C-0.96097656 17.7756543 -1.85945313 16.87943359 -2.78515625 15.95605469 C-5.60632845 13.43920015 -5.60632845 13.43920015 -8.5078125 15.3125 Z M-25.62890625 32.53125 C-26.26699219 33.1809375 -26.90507812 33.830625 -27.5625 34.5 C-28.20316406 35.1496875 -28.84382813 35.799375 -29.50390625 36.46875 C-29.99761719 36.9740625 -30.49132812 37.479375 -31 38 C-26.03805145 43.99500997 -20.6523376 49.46427037 -15.125 54.9375 C-14.24585938 55.81212891 -13.36671875 56.68675781 -12.4609375 57.58789062 C-10.3095654 59.72757048 -8.15588208 61.86486597 -6 64 C-4.82460004 63.07347299 -3.65989423 62.13336613 -2.5 61.1875 C-1.8503125 60.66542969 -1.200625 60.14335938 -0.53125 59.60546875 C1.34509128 58.00795167 1.34509128 58.00795167 1 55 C-0.68490796 53.04051166 -2.37145983 51.25679994 -4.21484375 49.45703125 C-4.74517715 48.92857101 -5.27551056 48.40011078 -5.82191467 47.8556366 C-6.94411264 46.74016214 -8.06990313 45.62829202 -9.19897461 44.51977539 C-10.93410659 42.81583242 -12.65830732 41.101416 -14.38085938 39.38476562 C-15.47073279 38.30406049 -16.56120732 37.22396116 -17.65234375 36.14453125 C-18.17215317 35.62897171 -18.69196259 35.11341217 -19.2275238 34.58222961 C-22.21220462 30.86221391 -22.21220462 30.86221391 -25.62890625 32.53125 Z M27.4921875 51.3125 C26.95851563 51.869375 26.42484375 52.42625 25.875 53 C25.33617187 53.556875 24.79734375 54.11375 24.2421875 54.6875 C23.83226562 55.120625 23.42234375 55.55375 23 56 C24.65236651 60.29067546 27.8905207 63.1429553 31.1015625 66.296875 C31.69802582 66.89050842 32.29448914 67.48414185 32.9090271 68.09576416 C34.8096981 69.98526627 36.71721474 71.86768392 38.625 73.75 C39.91712468 75.03209065 41.20879676 76.31463761 42.5 77.59765625 C45.66144479 80.73708432 48.8290461 83.87017801 52 87 C53.17539996 86.07347299 54.34010577 85.13336613 55.5 84.1875 C56.47453125 83.40439453 56.47453125 83.40439453 57.46875 82.60546875 C59.34509128 81.00795167 59.34509128 81.00795167 59 78 C57.03984388 75.75236186 55.06540124 73.66990992 52.9453125 71.58203125 C52.32856659 70.96478683 51.71182068 70.34754242 51.0763855 69.71159363 C49.7701704 68.40772053 48.46025731 67.10754324 47.14697266 65.81079102 C45.13136426 63.81878972 43.12941517 61.8137933 41.12890625 59.80664062 C39.86016575 58.5434761 38.59065995 57.28107968 37.3203125 56.01953125 C36.71816925 55.41647659 36.116026 54.81342194 35.49563599 54.1920929 C31.8940071 49.91154324 31.8940071 49.91154324 27.4921875 51.3125 Z M10.37109375 68.53125 C9.73300781 69.1809375 9.09492188 69.830625 8.4375 70.5 C7.79683594 71.1496875 7.15617187 71.799375 6.49609375 72.46875 C6.00238281 72.9740625 5.50867188 73.479375 5 74 C10.52650334 80.74080425 16.69449559 86.8071129 22.875 92.9375 C23.95596274 94.01343727 25.03669383 95.08960731 26.1171875 96.16601562 C28.74212641 98.78003292 31.37018628 101.39088596 34 104 C37.32759923 102.44805246 39.48580485 100.69378051 42 98 C40.34632885 93.72113402 37.13020426 90.8599365 33.93359375 87.703125 C33.33950211 87.10949158 32.74541046 86.51585815 32.13331604 85.90423584 C30.88071283 84.65464684 29.62568693 83.40748226 28.3684082 82.16259766 C26.43574928 80.24826588 24.51128287 78.32598142 22.58789062 76.40234375 C21.37026394 75.1896298 20.15218082 73.97737392 18.93359375 72.765625 C18.3544371 72.18758118 17.77528046 71.60953735 17.17857361 71.01397705 C14.03411697 66.96954869 14.03411697 66.96954869 10.37109375 68.53125 Z M110.37109375 133.53125 C109.73300781 134.1809375 109.09492188 134.830625 108.4375 135.5 C107.79683594 136.1496875 107.15617188 136.799375 106.49609375 137.46875 C106.00238281 137.9740625 105.50867188 138.479375 105 139 C110.52650334 145.74080425 116.69449559 151.8071129 122.875 157.9375 C123.95596274 159.01343727 125.03669383 160.08960731 126.1171875 161.16601562 C128.74212641 163.78003292 131.37018628 166.39088596 134 169 C137.32759923 167.44805246 139.48580485 165.69378051 142 163 C140.34632885 158.72113402 137.13020426 155.8599365 133.93359375 152.703125 C133.33950211 152.10949158 132.74541046 151.51585815 132.13331604 150.90423584 C130.88071283 149.65464684 129.62568693 148.40748226 128.3684082 147.16259766 C126.43574928 145.24826588 124.51128287 143.32598142 122.58789062 141.40234375 C121.37026394 140.1896298 120.15218082 138.97737392 118.93359375 137.765625 C118.3544371 137.18758118 117.77528046 136.60953735 117.17857361 136.01397705 C114.03411697 131.96954869 114.03411697 131.96954869 110.37109375 133.53125 Z M92.4921875 151.3125 C91.95851563 151.869375 91.42484375 152.42625 90.875 153 C90.33617187 153.556875 89.79734375 154.11375 89.2421875 154.6875 C88.83226562 155.120625 88.42234375 155.55375 88 156 C89.65236651 160.29067546 92.8905207 163.1429553 96.1015625 166.296875 C96.69802582 166.89050842 97.29448914 167.48414185 97.9090271 168.09576416 C99.8096981 169.98526627 101.71721474 171.86768392 103.625 173.75 C104.91712468 175.03209065 106.20879676 176.31463761 107.5 177.59765625 C110.66144479 180.73708432 113.8290461 183.87017801 117 187 C118.17539996 186.07347299 119.34010577 185.13336613 120.5 184.1875 C121.47453125 183.40439453 121.47453125 183.40439453 122.46875 182.60546875 C124.34509128 181.00795167 124.34509128 181.00795167 124 178 C122.03984388 175.75236186 120.06540124 173.66990992 117.9453125 171.58203125 C117.32856659 170.96478683 116.71182068 170.34754242 116.0763855 169.71159363 C114.7701704 168.40772053 113.46025731 167.10754324 112.14697266 165.81079102 C110.13136426 163.81878972 108.12941517 161.8137933 106.12890625 159.80664062 C104.86016575 158.5434761 103.59065995 157.28107968 102.3203125 156.01953125 C101.71816925 155.41647659 101.116026 154.81342194 100.49563599 154.1920929 C96.8940071 149.91154324 96.8940071 149.91154324 92.4921875 151.3125 Z M150.4921875 174.3125 C149.95851563 174.869375 149.42484375 175.42625 148.875 176 C148.33617187 176.556875 147.79734375 177.11375 147.2421875 177.6875 C146.83226562 178.120625 146.42234375 178.55375 146 179 C147.5847358 182.86328627 150.05956887 185.28876923 153.0078125 188.203125 C153.73603714 188.9271048 153.73603714 188.9271048 154.47897339 189.66571045 C156.02299866 191.19858562 157.57384824 192.72434004 159.125 194.25 C160.17624009 195.29120361 161.22702657 196.33286541 162.27734375 197.375 C164.84633004 199.92199464 167.42148161 202.46265177 170 205 C173.32759923 203.44805246 175.48580485 201.69378051 178 199 C176.41636918 195.16394511 173.97385878 192.71554351 171.0625 189.796875 C170.58176025 189.3142218 170.10102051 188.8315686 169.60571289 188.33428955 C168.59278907 187.32000936 167.57735362 186.30823196 166.55957031 185.29882812 C164.99826835 183.74828028 163.44797503 182.18729497 161.8984375 180.625 C160.91209939 179.63998266 159.9251415 178.65558547 158.9375 177.671875 C158.03902344 176.7756543 157.14054688 175.87943359 156.21484375 174.95605469 C153.39367155 172.43920015 153.39367155 172.43920015 150.4921875 174.3125 Z M133.37109375 191.53125 C132.73300781 192.1809375 132.09492188 192.830625 131.4375 193.5 C130.79683594 194.1496875 130.15617188 194.799375 129.49609375 195.46875 C129.00238281 195.9740625 128.50867188 196.479375 128 197 C132.96194855 202.99500997 138.3476624 208.46427037 143.875 213.9375 C144.75414062 214.81212891 145.63328125 215.68675781 146.5390625 216.58789062 C148.6904346 218.72757048 150.84411792 220.86486597 153 223 C154.17539996 222.07347299 155.34010577 221.13336613 156.5 220.1875 C157.1496875 219.66542969 157.799375 219.14335937 158.46875 218.60546875 C160.34509128 217.00795167 160.34509128 217.00795167 160 214 C158.31509204 212.04051166 156.62854017 210.25679994 154.78515625 208.45703125 C154.25482285 207.92857101 153.72448944 207.40011078 153.17808533 206.8556366 C152.05588736 205.74016214 150.93009687 204.62829202 149.80102539 203.51977539 C148.06589341 201.81583242 146.34169268 200.101416 144.61914062 198.38476562 C143.52926721 197.30406049 142.43879268 196.22396116 141.34765625 195.14453125 C140.82784683 194.62897171 140.30803741 194.11341217 139.7724762 193.58222961 C136.78779538 189.86221391 136.78779538 189.86221391 133.37109375 191.53125 Z " fill="#87C7FD" transform="translate(279,41)"/>
<path d="M0 0 C7.54163674 13.62124711 13.98760859 27.25108726 19 42 C19.28214355 42.82854492 19.56428711 43.65708984 19.85498047 44.51074219 C27.65865904 67.88039128 30 90.24048459 30 115 C-38.64 115 -107.28 115 -178 115 C-170.02965443 104.37287257 -163.88309013 98.7160862 -151.26953125 94.859375 C-150.27675171 94.55217529 -150.27675171 94.55217529 -149.26391602 94.23876953 C-147.33348314 93.65044267 -145.39341907 93.09400257 -143.453125 92.5390625 C-137.44152022 89.85968209 -134.53314976 84.98744489 -132 79 C-131.53039417 77.37822171 -131.0730373 75.75286886 -130.625 74.125 C-128.58984432 67.08675327 -125.35749582 60.95577518 -119 57 C-108.22572107 51.45894226 -100.06679263 52.34863768 -88.69921875 55.77734375 C-86.22643788 56.59464091 -83.76980908 57.46246794 -81.33203125 58.37890625 C-70.81064695 62.27037716 -59.57429637 64.64221855 -48.75 60.3125 C-42.39592148 56.84554081 -40.08494955 51.70856826 -38 45 C-36.88890072 40.0389771 -36.01228283 35.03055242 -35.15820312 30.01953125 C-33.07469043 19.05147447 -28.58038501 11.30684495 -19.58203125 4.62890625 C-13.05491815 0.51119647 -7.56109604 -0.12681084 0 0 Z " fill="#19CEBA" transform="translate(234,357)"/>
<path d="M0 0 C50.39240261 0 98.23673167 14.3772433 138 46 C139.3921875 46.91458984 139.3921875 46.91458984 140.8125 47.84765625 C143 50 143 50 143.48046875 53.03125 C142.68834431 62.41000333 140.86536975 71.11562489 134 78.0078125 C126.67662615 83.75000336 120.14618283 84.71470738 111 84 C108.47121558 83.54190607 105.94998225 83.04040138 103.4375 82.5 C92.19790283 80.12656222 84.52761103 80.70433738 73.87109375 84.90625 C65.85443557 87.51985116 59.40593391 86.24961391 51.99804688 82.54296875 C50.66870117 81.84107422 50.66870117 81.84107422 49.3125 81.125 C37.4772021 75.0586664 25.04481106 70.83436258 11.77734375 75.015625 C8.56547007 76.58608459 5.87667127 78.10445303 3.3671875 80.66796875 C2 82 2 82 0 82 C0 54.94 0 27.88 0 0 Z " fill="#19CEBA" transform="translate(40,248)"/>
<path d="M0 0 C3.18086518 1.50946511 5.29869906 3.07941825 7.75 5.625 C8.36359375 6.25664062 8.9771875 6.88828125 9.609375 7.5390625 C10.29773438 8.26222656 10.29773438 8.26222656 11 9 C9.64556914 12.05777443 8.15295264 14.04421157 5.70703125 16.3125 C5.07732422 16.91320312 4.44761719 17.51390625 3.79882812 18.1328125 C2.46837518 19.38346443 1.13236097 20.62822504 -0.20898438 21.8671875 C-0.83482422 22.46789062 -1.46066406 23.06859375 -2.10546875 23.6875 C-2.68449951 24.22761719 -3.26353027 24.76773438 -3.86010742 25.32421875 C-5.23403983 26.95133726 -5.23403983 26.95133726 -4.76025391 29.06787109 C-3.82031843 31.45664738 -2.57646711 33.46594732 -1.1875 35.625 C8.37296229 51.23812907 11.02261362 70.27227752 6.984375 88.171875 C4.12313983 98.87686017 4.12313983 98.87686017 0 103 C-11.22 91.78 -22.44 80.56 -34 69 C-38.07919833 70.63167933 -41.76454627 72.38932365 -45.62890625 74.44921875 C-46.25925278 74.78492386 -46.8895993 75.12062897 -47.53904724 75.46650696 C-48.87184125 76.1771694 -50.2039463 76.88912526 -51.53540039 77.60229492 C-53.53013162 78.67017163 -55.52756058 79.73285634 -57.52539062 80.79492188 C-64.69799116 84.62083598 -71.76267976 88.55638136 -78.72241211 92.76098633 C-81 94 -81 94 -83 94 C-81.53511662 90.12418135 -79.76166539 86.52954034 -77.8046875 82.87890625 C-77.49568008 82.3016832 -77.18667267 81.72446014 -76.86830139 81.12974548 C-76.21106674 79.90352455 -75.55253274 78.67799928 -74.89279175 77.453125 C-73.86970797 75.55266966 -72.85169631 73.64956065 -71.83422852 71.74609375 C-69.02693674 66.50873173 -66.21693651 61.28124099 -63.16015625 56.18359375 C-62.77424316 55.53898193 -62.38833008 54.89437012 -61.99072266 54.23022461 C-61.01868442 52.63336902 -60.02400077 51.05035706 -59.02734375 49.46875 C-57.7086579 47.09688202 -57.7086579 47.09688202 -58.73800659 45.05767822 C-60.04053094 42.93391437 -61.39791562 41.36112309 -63.16455078 39.60839844 C-63.80506378 38.9680365 -64.44557678 38.32767456 -65.10549927 37.66790771 C-65.79513763 36.98859192 -66.484776 36.30927612 -67.1953125 35.609375 C-67.90275604 34.90476135 -68.61019958 34.20014771 -69.33908081 33.47418213 C-71.59639862 31.2280461 -73.86057633 28.98896991 -76.125 26.75 C-77.65800953 25.22702283 -79.19056715 23.70359061 -80.72265625 22.1796875 C-84.47654573 18.44783185 -88.23608914 14.72174649 -92 11 C-89.2688034 8.06203145 -86.97171202 7.09328535 -83.125 5.875 C-82.09632813 5.54242188 -81.06765625 5.20984375 -80.0078125 4.8671875 C-62.47200718 -0.18859014 -42.6624782 2.09568512 -26.6875 10.625 C-23.76321552 12.27238289 -21.36979106 13.63020894 -19 16 C-15.45600743 15.69371213 -13.74942859 14.10501726 -11.328125 11.62109375 C-10.33232422 10.61079102 -10.33232422 10.61079102 -9.31640625 9.58007812 C-8.63449219 8.87302734 -7.95257813 8.16597656 -7.25 7.4375 C-6.55261719 6.72658203 -5.85523438 6.01566406 -5.13671875 5.28320312 C-3.4175342 3.52869286 -1.70574128 1.76756648 0 0 Z " fill="#CBCBCB" transform="translate(311,190)"/>
<path d="M0 0 C4.20681501 1.64790517 7.04390219 4.74838413 10.17382812 7.88330078 C10.78246201 8.48521744 11.39109589 9.08713409 12.01817322 9.70729065 C14.02787241 11.69799951 16.02994995 13.69616224 18.03125 15.6953125 C19.42827868 17.08591269 20.82545698 18.47636259 22.22277832 19.8666687 C25.15161072 22.78352481 28.07627757 25.70448737 30.99853516 28.62792969 C34.73413761 32.36373505 38.48328679 36.08561213 42.23618317 39.80403328 C45.12733395 42.67288498 48.00928608 45.55084405 50.88877869 48.43139267 C52.26659052 49.80685193 53.64762937 51.17908682 55.03199768 52.54794693 C56.97308156 54.46931643 58.9009427 56.40309317 60.82617188 58.34033203 C61.39460312 58.89752426 61.96303436 59.45471649 62.5486908 60.02879333 C66.8415589 64.38963447 70.37729701 69.32197863 71.41796875 75.46875 C70.22242414 86.00575331 60.01454512 93.17189156 52.86499023 100.3203125 C51.2996661 101.88785207 49.74255709 103.46326961 48.18554688 105.0390625 C47.18278058 106.04475855 46.17954237 107.04998435 45.17578125 108.0546875 C44.27770752 108.95687012 43.37963379 109.85905273 42.4543457 110.78857422 C38.91551389 113.97714863 36.31583304 115.28778596 31.5625 115.3125 C30.82128906 115.32925781 30.08007812 115.34601563 29.31640625 115.36328125 C23.37383049 114.431309 19.41070809 109.68620528 15.3737793 105.60083008 C14.72931351 104.95665634 14.08484772 104.3124826 13.42085266 103.64878845 C11.30053047 101.52707748 9.1873728 99.39837953 7.07421875 97.26953125 C5.60206573 95.79364651 4.12946934 94.3182039 2.65644836 92.84318542 C-1.21294652 88.96616669 -5.07629668 85.08317863 -8.93841553 81.19891357 C-12.88304239 77.23380146 -16.83336087 73.27436874 -20.78320312 69.31445312 C-28.52771404 61.54851431 -36.26585048 53.77625689 -44 46 C-42.49053489 42.81913482 -40.92058175 40.70130094 -38.375 38.25 C-37.42753906 37.32960938 -37.42753906 37.32960938 -36.4609375 36.390625 C-35.73777344 35.70226562 -35.73777344 35.70226562 -35 35 C-28.25919575 40.52650334 -22.1928871 46.69449559 -16.0625 52.875 C-14.98656273 53.95596274 -13.91039269 55.03669383 -12.83398438 56.1171875 C-10.21996708 58.74212641 -7.60911404 61.37018628 -5 64 C-2.69 62.02 -0.38 60.04 2 58 C-3.52650334 51.25919575 -9.69449559 45.1928871 -15.875 39.0625 C-16.95596274 37.98656273 -18.03669383 36.91039269 -19.1171875 35.83398438 C-21.74212641 33.21996708 -24.37018628 30.60911404 -27 28 C-26.06409496 26.8944811 -25.12620142 25.79064547 -24.1875 24.6875 C-23.66542969 24.07261719 -23.14335937 23.45773438 -22.60546875 22.82421875 C-21.12827531 21.14575321 -19.59960869 19.56117966 -18 18 C-13.80374091 19.63778045 -11.01323215 22.73323182 -7.921875 25.8828125 C-7.35043762 26.45707977 -6.77900024 27.03134705 -6.19024658 27.62301636 C-4.37207055 29.4523581 -2.56098508 31.28854193 -0.75 33.125 C0.48391329 34.36894774 1.71828322 35.6124427 2.953125 36.85546875 C5.97406743 39.89842367 8.98867092 42.94753254 12 46 C14.8605891 44.64062915 16.85927699 43.35479531 19 41 C17.36221955 36.80374091 14.26676818 34.01323215 11.1171875 30.921875 C10.54292023 30.35043762 9.96865295 29.77900024 9.37698364 29.19024658 C7.5476419 27.37207055 5.71145807 25.56098508 3.875 23.75 C2.63105226 22.51608671 1.3875573 21.28171678 0.14453125 20.046875 C-2.89842367 17.02593257 -5.94753254 14.01132908 -9 11 C-7.49053489 7.81913482 -5.92058175 5.70130094 -3.375 3.25 C-2.74335938 2.63640625 -2.11171875 2.0228125 -1.4609375 1.390625 C-0.73777344 0.70226562 -0.73777344 0.70226562 0 0 Z M28.4921875 52.3125 C27.95851563 52.869375 27.42484375 53.42625 26.875 54 C26.33617187 54.556875 25.79734375 55.11375 25.2421875 55.6875 C24.83226562 56.120625 24.42234375 56.55375 24 57 C25.5847358 60.86328627 28.05956887 63.28876923 31.0078125 66.203125 C31.73603714 66.9271048 31.73603714 66.9271048 32.47897339 67.66571045 C34.02299866 69.19858562 35.57384824 70.72434004 37.125 72.25 C38.17624009 73.29120361 39.22702657 74.33286541 40.27734375 75.375 C42.84633004 77.92199464 45.42148161 80.46265177 48 83 C51.32759923 81.44805246 53.48580485 79.69378051 56 77 C54.41636918 73.16394511 51.97385878 70.71554351 49.0625 67.796875 C48.58176025 67.3142218 48.10102051 66.8315686 47.60571289 66.33428955 C46.59278907 65.32000936 45.57735362 64.30823196 44.55957031 63.29882812 C42.99826835 61.74828028 41.44797503 60.18729497 39.8984375 58.625 C38.91209939 57.63998266 37.9251415 56.65558547 36.9375 55.671875 C36.03902344 54.7756543 35.14054687 53.87943359 34.21484375 52.95605469 C31.39367155 50.43920015 31.39367155 50.43920015 28.4921875 52.3125 Z M11.37109375 69.53125 C10.73300781 70.1809375 10.09492188 70.830625 9.4375 71.5 C8.79683594 72.1496875 8.15617187 72.799375 7.49609375 73.46875 C7.00238281 73.9740625 6.50867188 74.479375 6 75 C10.96194855 80.99500997 16.3476624 86.46427037 21.875 91.9375 C22.75414062 92.81212891 23.63328125 93.68675781 24.5390625 94.58789062 C26.6904346 96.72757048 28.84411792 98.86486597 31 101 C32.17539996 100.07347299 33.34010577 99.13336613 34.5 98.1875 C35.1496875 97.66542969 35.799375 97.14335937 36.46875 96.60546875 C38.34509128 95.00795167 38.34509128 95.00795167 38 92 C36.31509204 90.04051166 34.62854017 88.25679994 32.78515625 86.45703125 C32.25482285 85.92857101 31.72448944 85.40011078 31.17808533 84.8556366 C30.05588736 83.74016214 28.93009687 82.62829202 27.80102539 81.51977539 C26.06589341 79.81583242 24.34169268 78.101416 22.61914062 76.38476562 C21.52926721 75.30406049 20.43879268 74.22396116 19.34765625 73.14453125 C18.82784683 72.62897171 18.30803741 72.11341217 17.7724762 71.58222961 C14.78779538 67.86221391 14.78779538 67.86221391 11.37109375 69.53125 Z " fill="#4087B5" transform="translate(401,163)"/>
<path d="M0 0 C5.49397047 3.29825451 10.12093115 7.83543186 14.59960938 12.37255859 C15.20549896 12.97815613 15.81138855 13.58375366 16.43563843 14.20770264 C18.40979535 16.18323761 20.37679912 18.16573002 22.34375 20.1484375 C23.72193236 21.53035541 25.10056096 22.91182842 26.47961426 24.2928772 C30.0875867 27.90844333 33.68950929 31.5299774 37.29016113 35.15283203 C40.97362606 38.8568477 44.66284172 42.55512602 48.3515625 46.25390625 C55.57331495 53.49703331 62.78868252 60.74648477 70 68 C68.49053489 71.18086518 66.92058175 73.29869906 64.375 75.75 C63.74335938 76.36359375 63.11171875 76.9771875 62.4609375 77.609375 C61.97882813 78.06828125 61.49671875 78.5271875 61 79 C56.80374091 77.36221955 54.01323215 74.26676818 50.921875 71.1171875 C50.35043762 70.54292023 49.77900024 69.96865295 49.19024658 69.37698364 C47.37207055 67.5476419 45.56098508 65.71145807 43.75 63.875 C42.51608671 62.63105226 41.28171678 61.3875573 40.046875 60.14453125 C37.02593257 57.10157633 34.01132908 54.05246746 31 51 C28.1394109 52.35937085 26.14072301 53.64520469 24 56 C25.63778045 60.19625909 28.73323182 62.98676785 31.8828125 66.078125 C32.74421341 66.93528107 32.74421341 66.93528107 33.62301636 67.80975342 C35.4523581 69.62792945 37.28854193 71.43901492 39.125 73.25 C40.36894774 74.48391329 41.6124427 75.71828322 42.85546875 76.953125 C45.89842367 79.97406743 48.94753254 82.98867092 52 86 C50.49053489 89.18086518 48.92058175 91.29869906 46.375 93.75 C45.74335938 94.36359375 45.11171875 94.9771875 44.4609375 95.609375 C43.97882813 96.06828125 43.49671875 96.5271875 43 97 C36.25919575 91.47349666 30.1928871 85.30550441 24.0625 79.125 C22.98656273 78.04403726 21.91039269 76.96330617 20.83398438 75.8828125 C18.21996708 73.25787359 15.60911404 70.62981372 13 68 C10.69 69.98 8.38 71.96 6 74 C11.52650334 80.74080425 17.69449559 86.8071129 23.875 92.9375 C24.95596274 94.01343727 26.03669383 95.08960731 27.1171875 96.16601562 C29.74212641 98.78003292 32.37018628 101.39088596 35 104 C34.06409496 105.1055189 33.12620142 106.20935453 32.1875 107.3125 C31.66542969 107.92738281 31.14335937 108.54226562 30.60546875 109.17578125 C29.12827531 110.85424679 27.59960869 112.43882034 26 114 C23.22629894 112.73128321 21.17591008 111.42650281 19.02009583 109.27406311 C18.46070816 108.72031509 17.9013205 108.16656708 17.32498169 107.59603882 C16.7237851 106.99079376 16.1225885 106.38554871 15.50317383 105.76196289 C14.86046036 105.12275406 14.21774689 104.48354523 13.55555725 103.82496643 C11.43432534 101.71253106 9.32048563 99.59287082 7.20703125 97.47265625 C5.7357002 96.00267228 4.26407235 94.53298532 2.79216003 93.06358337 C-0.29018124 89.98419042 -3.36887634 86.9012093 -6.44506836 83.81567383 C-10.39288372 79.85645419 -14.3496221 75.90629319 -18.30912304 71.95876408 C-21.34869358 68.92641141 -24.38349568 65.88932259 -27.4168644 62.85076714 C-28.87428177 61.39201359 -30.33319181 59.9347498 -31.79360008 58.47899055 C-33.83105832 56.44659733 -35.86201847 54.40792759 -37.89135742 52.36743164 C-38.49862671 51.76421082 -39.105896 51.16098999 -39.73156738 50.53948975 C-43.56283194 46.66900594 -45.13454443 44.11046171 -45.3125 38.6875 C-45.34988281 37.94886719 -45.38726562 37.21023437 -45.42578125 36.44921875 C-44.36971201 30.37439847 -39.07988136 25.77219218 -34.87890625 21.578125 C-34.2971312 20.99206482 -33.71535614 20.40600464 -33.11595154 19.80218506 C-31.89226065 18.57278294 -30.66598377 17.34594989 -29.43725586 16.12158203 C-27.56276092 14.25026048 -25.70202308 12.36596244 -23.84179688 10.48046875 C-22.64664432 9.28304417 -21.45070716 8.08640209 -20.25390625 6.890625 C-19.70166885 6.32917786 -19.14943146 5.76773071 -18.58045959 5.18927002 C-12.69490078 -0.62676127 -7.89892628 -2.10873703 0 0 Z M-8.5078125 15.3125 C-9.04148437 15.869375 -9.57515625 16.42625 -10.125 17 C-10.66382813 17.556875 -11.20265625 18.11375 -11.7578125 18.6875 C-12.16773438 19.120625 -12.57765625 19.55375 -13 20 C-11.4152642 23.86328627 -8.94043113 26.28876923 -5.9921875 29.203125 C-5.26396286 29.9271048 -5.26396286 29.9271048 -4.52102661 30.66571045 C-2.97700134 32.19858562 -1.42615176 33.72434004 0.125 35.25 C1.17624009 36.29120361 2.22702657 37.33286541 3.27734375 38.375 C5.84633004 40.92199464 8.42148161 43.46265177 11 46 C14.32759923 44.44805246 16.48580485 42.69378051 19 40 C17.41636918 36.16394511 14.97385878 33.71554351 12.0625 30.796875 C11.58176025 30.3142218 11.10102051 29.8315686 10.60571289 29.33428955 C9.59278907 28.32000936 8.57735362 27.30823196 7.55957031 26.29882812 C5.99826835 24.74828028 4.44797503 23.18729497 2.8984375 21.625 C1.91209939 20.63998266 0.9251415 19.65558547 -0.0625 18.671875 C-0.96097656 17.7756543 -1.85945313 16.87943359 -2.78515625 15.95605469 C-5.60632845 13.43920015 -5.60632845 13.43920015 -8.5078125 15.3125 Z M-25.62890625 32.53125 C-26.26699219 33.1809375 -26.90507812 33.830625 -27.5625 34.5 C-28.20316406 35.1496875 -28.84382813 35.799375 -29.50390625 36.46875 C-29.99761719 36.9740625 -30.49132812 37.479375 -31 38 C-26.03805145 43.99500997 -20.6523376 49.46427037 -15.125 54.9375 C-14.24585938 55.81212891 -13.36671875 56.68675781 -12.4609375 57.58789062 C-10.3095654 59.72757048 -8.15588208 61.86486597 -6 64 C-4.82460004 63.07347299 -3.65989423 62.13336613 -2.5 61.1875 C-1.8503125 60.66542969 -1.200625 60.14335938 -0.53125 59.60546875 C1.34509128 58.00795167 1.34509128 58.00795167 1 55 C-0.68490796 53.04051166 -2.37145983 51.25679994 -4.21484375 49.45703125 C-4.74517715 48.92857101 -5.27551056 48.40011078 -5.82191467 47.8556366 C-6.94411264 46.74016214 -8.06990313 45.62829202 -9.19897461 44.51977539 C-10.93410659 42.81583242 -12.65830732 41.101416 -14.38085938 39.38476562 C-15.47073279 38.30406049 -16.56120732 37.22396116 -17.65234375 36.14453125 C-18.17215317 35.62897171 -18.69196259 35.11341217 -19.2275238 34.58222961 C-22.21220462 30.86221391 -22.21220462 30.86221391 -25.62890625 32.53125 Z " fill="#4087B5" transform="translate(279,41)"/>
<path d="M0 0 C1.3001001 -0.02102783 1.3001001 -0.02102783 2.62646484 -0.04248047 C3.43680176 -0.03619629 4.24713867 -0.02991211 5.08203125 -0.0234375 C6.16254761 -0.01836182 6.16254761 -0.01836182 7.26489258 -0.01318359 C9.77459581 0.49353744 10.6579764 1.34715814 12.1875 3.375 C12.6875 6.8125 12.6875 6.8125 12.1875 10.375 C8.58267998 14.41765242 5.37427332 14.86753971 0.24633789 15.18261719 C-1.08216187 15.24690918 -1.08216187 15.24690918 -2.4375 15.3125 C-31.7040346 17.44357072 -58.60698232 30.12446704 -78.22485352 52.11743164 C-95.19713667 71.90708421 -103.58726999 94.74619592 -105.51074219 120.48974609 C-106.25465216 128.73007348 -106.25465216 128.73007348 -109.21484375 132.15234375 C-112.59205788 133.74191972 -114.29160325 133.5231185 -117.8125 132.375 C-119.46875 131.2578125 -119.46875 131.2578125 -120.8125 129.375 C-124.38617804 101.03082806 -111.82354581 70.42527685 -94.8125 48.375 C-91.93904045 44.90964826 -88.9280817 41.62304691 -85.8125 38.375 C-85.05453125 37.55386719 -84.2965625 36.73273438 -83.515625 35.88671875 C-62.04772082 13.33138805 -30.99485594 0.35050726 0 0 Z " fill="#18CFBA" transform="translate(191.8125,74.625)"/>
<path d="M0 0 C3.4375 0.5 3.4375 0.5 5.3125 1.6875 C10.61703045 10.23368795 6.39071048 26.38789079 4.43359375 35.609375 C-3.23682498 68.00360705 -23.22375633 96.84577641 -51.5625 114.5 C-52.50222656 115.11230469 -53.44195312 115.72460938 -54.41015625 116.35546875 C-72.47922467 127.61446187 -94.10998956 133.31248442 -115.3125 133.875 C-116.58609375 133.92398438 -117.8596875 133.97296875 -119.171875 134.0234375 C-122.5625 133.5 -122.5625 133.5 -125.01953125 131.171875 C-126.5625 128.5 -126.5625 128.5 -126.5 125.375 C-125.52053525 122.37130811 -125.01384213 121.38714968 -122.5625 119.5 C-120.10498047 118.96337891 -120.10498047 118.96337891 -117.1796875 118.7265625 C-115.56501587 118.57731323 -115.56501587 118.57731323 -113.91772461 118.42504883 C-112.76925049 118.32603271 -111.62077637 118.2270166 -110.4375 118.125 C-80.67239413 115.08100363 -53.48611149 102.53582561 -33.875 79.40625 C-17.41863538 59.15798209 -8.28561809 34.51577383 -8.03125 8.34765625 C-7.19448394 3.26430243 -5.09053856 0.71446155 0 0 Z " fill="#18CFBA" transform="translate(430.5625,307.5)"/>
<path d="M0 0 C4 6.5 4 6.5 4 11 C3.154375 11.21914063 2.30875 11.43828125 1.4375 11.6640625 C-5.82890167 13.69535206 -11.48742504 15.79017515 -17 21 C-17.55300781 21.50144531 -18.10601562 22.00289063 -18.67578125 22.51953125 C-25.94040053 29.92836133 -27.19099865 40.52514062 -28.93310547 50.33740234 C-30.41748217 58.57220625 -32.50790947 65.36400932 -39 71 C-44.91469137 75.05066743 -51.67181006 76.28960047 -58.75439453 75.43896484 C-66.85758052 73.85497611 -74.70647831 70.69212539 -82.43554688 67.84790039 C-91.64966835 64.8013806 -101.65596617 64.43253591 -110.5625 68.5 C-118.31811178 72.96846506 -120.3987118 78.08604007 -123.11450195 86.27734375 C-127.78207289 100.30253283 -127.78207289 100.30253283 -134 104 C-137.58798489 105.64971081 -141.22015018 106.86923032 -145 108 C-146.62695316 108.51469969 -148.25212999 109.03506725 -149.875 109.5625 C-150.55304688 109.77003906 -151.23109375 109.97757812 -151.9296875 110.19140625 C-154.11741298 110.94547862 -154.11741298 110.94547862 -156.17578125 112.578125 C-160.23010449 114.61930572 -163.84560625 114.32499712 -168.3125 114.1875 C-169.56643555 114.16719727 -169.56643555 114.16719727 -170.84570312 114.14648438 C-172.89741498 114.11131217 -174.94879275 114.05751048 -177 114 C-170.51078372 103.76307903 -162.70528487 98.35035419 -151.2734375 94.86328125 C-150.61102051 94.65791748 -149.94860352 94.45255371 -149.26611328 94.2409668 C-147.33521968 93.65103648 -145.3942927 93.09425244 -143.453125 92.5390625 C-137.44152022 89.85968209 -134.53314976 84.98744489 -132 79 C-131.53039417 77.37822171 -131.0730373 75.75286886 -130.625 74.125 C-128.58984432 67.08675327 -125.35749582 60.95577518 -119 57 C-108.22572107 51.45894226 -100.06679263 52.34863768 -88.69921875 55.77734375 C-86.22643788 56.59464091 -83.76980908 57.46246794 -81.33203125 58.37890625 C-70.81064695 62.27037716 -59.57429637 64.64221855 -48.75 60.3125 C-42.39592148 56.84554081 -40.08494955 51.70856826 -38 45 C-36.88890072 40.0389771 -36.01228283 35.03055242 -35.15820312 30.01953125 C-33.07469043 19.05147447 -28.58038501 11.30684495 -19.58203125 4.62890625 C-13.20921326 0.60853544 -7.43937432 -0.40578405 0 0 Z " fill="#15B5A3" transform="translate(234,357)"/>
<path d="M0 0 C4.75 0.75 4.75 0.75 7 3 C7.63600648 12.61959795 5.56094667 21.11400235 0 29 C-5.17406943 34.19428064 -10.96358026 37.28135958 -18.375 37.3125 C-23.2750067 37.24620225 -27.77542356 36.52963622 -32.5625 35.5 C-43.80209717 33.12656222 -51.47238897 33.70433738 -62.12890625 37.90625 C-70.14556443 40.51985116 -76.59406609 39.24961391 -84.00195312 35.54296875 C-84.88818359 35.07503906 -85.77441406 34.60710937 -86.6875 34.125 C-98.1042752 28.27318558 -108.12226444 25.3340211 -121 27 C-124.70580867 28.22164526 -127.74454192 29.88106279 -131 32 C-132.32 32.66 -133.64 33.32 -135 34 C-135 27.73 -135 21.46 -135 15 C-126.62843856 9.84826988 -119.76732789 8.77026419 -110 10 C-103.88168513 11.60119165 -98.34475127 14.3332535 -92.69140625 17.11328125 C-91.94487793 17.47615234 -91.19834961 17.83902344 -90.42919922 18.21289062 C-88.97292663 18.92722865 -87.52464348 19.65817744 -86.08642578 20.40820312 C-81.09956298 22.89150589 -77.57781056 23.55497814 -72 23 C-68.75942771 21.9497872 -68.75942771 21.9497872 -65.625 20.5 C-55.26676509 16.56409373 -43.93690287 16.63551756 -33.26953125 19.5390625 C-25.92505403 21.03071192 -17.25534044 21.39189869 -10.67578125 17.390625 C-5.02042557 12.69760257 -2.20891958 6.87219425 0 0 Z " fill="#15B5A3" transform="translate(176,295)"/>
<path d="M0 0 C3.4375 0.4375 3.4375 0.4375 5.125 1.51953125 C8.86931059 6.99112797 6.87065972 17.43887028 5.74609375 23.78125 C1.04198915 46.71702302 -11.40258875 67.05000468 -30.90527344 80.28930664 C-45.8550582 89.92065428 -65.40525912 97.86777686 -83.5625 95.4375 C-86.8125 93.375 -86.8125 93.375 -88.5625 90.4375 C-88.5625 86.75 -88.5625 86.75 -87.5625 83.4375 C-84.59520221 81.45930147 -83.61421713 81.13800117 -80.23828125 80.796875 C-79.38218262 80.69922852 -78.52608398 80.60158203 -77.64404297 80.50097656 C-76.73025879 80.3975293 -75.81647461 80.29408203 -74.875 80.1875 C-54.93609854 77.60922325 -36.89907678 69.4282855 -24.11328125 53.359375 C-14.05699175 39.65744963 -8.22191033 23.95472412 -8.03125 6.890625 C-7.12756712 2.16135124 -4.58613877 0.56321002 0 0 Z " fill="#18CFBA" transform="translate(392.5625,307.5625)"/>
<path d="M0 0 C1.02565063 -0.02102783 1.02565063 -0.02102783 2.07202148 -0.04248047 C4.90567225 -0.01466112 6.86317523 0.07029595 9.2421875 1.68359375 C11.08871503 4.60164638 10.72240065 7.03723755 10.3125 10.375 C8.8046875 12.5390625 8.8046875 12.5390625 6.3125 14.375 C3.464836 14.86375631 0.86392349 15.15233945 -2 15.3125 C-22.29298417 17.02803593 -39.92780874 26.07587156 -53.375 41.4375 C-63.74609729 54.73186888 -68.33433271 69.43620161 -69.95458984 86.03320312 C-70.32212056 89.55660923 -70.67857769 91.36161654 -72.6875 94.375 C-76 95.375 -76 95.375 -79.6875 95.375 C-82.625 93.625 -82.625 93.625 -84.6875 90.375 C-87.77508945 73.64320574 -79.36544593 53.1322176 -70.6875 39.375 C-56.31077547 18.94991779 -36.91808139 5.55963205 -12.328125 0.84375 C-8.20319304 0.31264288 -4.15591973 0.05918909 0 0 Z " fill="#18CFBA" transform="translate(193.6875,112.625)"/>
<path d="M0 0 C3.49353838 1.74676919 5.13945763 2.91405215 7.75 5.625 C8.67039062 6.57246094 8.67039062 6.57246094 9.609375 7.5390625 C10.06828125 8.02117187 10.5271875 8.50328125 11 9 C9.64556914 12.05777443 8.15295264 14.04421157 5.70703125 16.3125 C5.07732422 16.91320312 4.44761719 17.51390625 3.79882812 18.1328125 C2.46837518 19.38346443 1.13236097 20.62822504 -0.20898438 21.8671875 C-0.83482422 22.46789062 -1.46066406 23.06859375 -2.10546875 23.6875 C-2.68449951 24.22761719 -3.26353027 24.76773438 -3.86010742 25.32421875 C-5.23403983 26.95133726 -5.23403983 26.95133726 -4.76025391 29.06787109 C-3.82031843 31.45664738 -2.57646711 33.46594732 -1.1875 35.625 C8.37296229 51.23812907 11.02261362 70.27227752 6.984375 88.171875 C3.82448391 99.99424725 3.82448391 99.99424725 0 103 C-11.6634402 93.01000992 -11.6634402 93.01000992 -12.421875 88.48046875 C-11.84961182 86.1464525 -11.03286002 84.16698082 -10 82 C-9.61418034 80.61258229 -9.25859817 79.21630935 -8.9375 77.8125 C-8.628125 76.554375 -8.31875 75.29625 -8 74 C-4.33791799 56.61837888 -6.06302761 36.49075214 -15 21 C-15.66 19.68 -16.32 18.36 -17 17 C-11.39 11.39 -5.78 5.78 0 0 Z " fill="#B3B3B3" transform="translate(311,190)"/>
<path d="M0 0 C3.41743928 0.59448632 5.21716122 1.76926605 7.76806641 4.08886719 C8.46538879 4.72191772 9.16271118 5.35496826 9.88116455 6.00720215 C13.21468833 9.14243336 16.48014317 12.33730628 19.7109375 15.578125 C20.40514801 16.27137878 21.09935852 16.96463257 21.81460571 17.67889404 C23.26614072 19.12975412 24.71643612 20.58185537 26.16552734 22.03515625 C28.38655894 24.26158704 30.61293481 26.48257446 32.83984375 28.703125 C34.25552943 30.11947079 35.67090526 31.53612637 37.0859375 32.953125 C37.75047943 33.6156427 38.41502136 34.2781604 39.09970093 34.96075439 C40.02173813 35.88751984 40.02173813 35.88751984 40.96240234 36.83300781 C41.77226089 37.64405975 41.77226089 37.64405975 42.59848022 38.47149658 C45.99742757 42.17840299 46.99878262 45.07507974 46.87158203 49.99581909 C44.82021383 57.06650317 38.07598762 62.27091122 32.9375 67.28515625 C31.58734938 68.63442373 30.23890385 69.98539939 28.89208984 71.33799744 C26.06935214 74.16193791 23.23016296 76.9678344 20.37744141 79.76147461 C16.72777142 83.33734706 13.11707404 86.94974475 9.51728821 90.57575321 C6.73887277 93.36782776 3.94335361 96.14224056 1.14212036 98.91140556 C-0.19577408 100.23711596 -1.52895039 101.56760592 -2.85720825 102.90297127 C-4.71891004 104.76833952 -6.60178802 106.60933555 -8.4921875 108.44555664 C-9.03382034 108.99664597 -9.57545319 109.54773529 -10.13349915 110.11552429 C-14.26724155 114.05944369 -17.27731792 114.88061528 -23 115 C-26.76177303 113.41169583 -28.77813419 111.39126887 -31 108 C-29.77909668 107.75556152 -28.55819336 107.51112305 -27.30029297 107.25927734 C-19.75212833 104.71588004 -14.62852198 98.40603862 -9.1953125 92.8515625 C-7.98342174 91.63354674 -6.77033734 90.41671757 -5.55612183 89.20101929 C-3.02389635 86.65962413 -0.50176358 84.1087776 2.01269531 81.54980469 C5.23025816 78.27555907 8.46503279 75.0190274 11.70658684 71.76854897 C14.80813799 68.65667371 17.90025473 65.53548908 20.9921875 62.4140625 C21.5795657 61.82292286 22.16694389 61.23178322 22.77212143 60.62273026 C24.43783721 58.94321517 26.09661074 57.2571459 27.75341797 55.56884766 C28.24278336 55.07724655 28.73214874 54.58564545 29.23634338 54.07914734 C32.95441432 50.26752757 35.62758714 46.97378817 36.625 41.6875 C34.90684722 31.55039858 21.19068775 22.11829411 14.0625 15.0625 C11.40472046 12.43121939 8.75021545 9.79669807 6.09765625 7.16015625 C5.48527603 6.55607437 4.87289581 5.95199249 4.24195862 5.3296051 C2.80905512 3.90518392 1.40158949 2.45524398 0 1 C0 0.67 0 0.34 0 0 Z " fill="#60B6FD" transform="translate(364,102)"/>
<path d="M0 0 C2.15625 1.16015625 2.15625 1.16015625 4 3 C6.31575033 14.68091709 1.92721568 27.00790077 -4.37890625 36.7265625 C-13.40138641 49.37977564 -25.23052508 57.04356709 -40.61328125 59.67578125 C-49.65720182 60.90433347 -49.65720182 60.90433347 -54.0625 57.9375 C-56 55 -56 55 -56 51.3125 C-55 48 -55 48 -52 46 C-49.69733032 45.5320473 -47.38236687 45.12347702 -45.0625 44.75 C-33.23226568 42.56573653 -24.05929131 38.02623983 -17 28 C-13.20890086 21.87067804 -11.15413731 15.50876736 -10.625 8.3125 C-10.31613504 5.24479037 -10.0573884 4.08714535 -8.3125 1.4375 C-5.27345748 -0.45163454 -3.52224887 -0.51366129 0 0 Z " fill="#18CFBA" transform="translate(360,308)"/>
<path d="M0 0 C1.68996094 -0.05607422 1.68996094 -0.05607422 3.4140625 -0.11328125 C6.375 0.3125 6.375 0.3125 8.24609375 2.14453125 C9.7915159 5.11238348 9.85642798 7.01127958 9.375 10.3125 C7.21521571 13.10993488 5.92710546 14.18241893 2.45703125 15 C1.37808594 15.103125 0.29914063 15.20625 -0.8125 15.3125 C-11.76774771 16.73398628 -20.87046036 21.35510235 -27.875 30.0625 C-32.97489524 37.379741 -35.01233012 44.97660412 -36.1328125 53.74609375 C-36.625 56.3125 -36.625 56.3125 -38.625 59.3125 C-41.9375 60.3125 -41.9375 60.3125 -45.625 60.3125 C-48.5625 58.375 -48.5625 58.375 -50.625 55.3125 C-51.37409006 43.28896967 -47.87533233 30.9347508 -40.625 21.3125 C-40.03847656 20.53390625 -39.45195312 19.7553125 -38.84765625 18.953125 C-29.2327343 7.23432442 -15.10245848 0.32982381 0 0 Z " fill="#18CFBA" transform="translate(194.625,147.6875)"/>
<path d="M0 0 C5.25174926 4.38442526 10.13222473 9.00842093 14.9375 13.875 C15.62134766 14.56335938 16.30519531 15.25171875 17.00976562 15.9609375 C18.67551464 17.63833511 20.3388622 19.31803791 22 21 C18.86065259 24.49517221 15.62143057 26.47845475 11.46875 28.64453125 C10.52110779 29.14384407 10.52110779 29.14384407 9.55432129 29.65324402 C7.53979242 30.71332585 5.52028311 31.76343245 3.5 32.8125 C0.86258092 34.19021293 -1.77237547 35.57255558 -4.40625 36.95703125 C-5.04780029 37.29300323 -5.68935059 37.62897522 -6.3503418 37.97512817 C-11.58185799 40.7328879 -16.66551548 43.69241009 -21.72460938 46.7565918 C-24 48 -24 48 -26 48 C-24.53511662 44.12418135 -22.76166539 40.52954034 -20.8046875 36.87890625 C-20.49581604 36.30154724 -20.18694458 35.72418823 -19.86871338 35.1293335 C-18.87377566 33.27211226 -17.87468088 31.41717189 -16.875 29.5625 C-16.36860992 28.62016006 -16.36860992 28.62016006 -15.85198975 27.65878296 C-2.13562866 2.13562866 -2.13562866 2.13562866 0 0 Z " fill="#FA6D85" transform="translate(254,236)"/>
<path d="M0 0 C3.18086518 1.50946511 5.29869906 3.07941825 7.75 5.625 C8.67039062 6.57246094 8.67039062 6.57246094 9.609375 7.5390625 C10.06828125 8.02117187 10.5271875 8.50328125 11 9 C9.60652624 12.15204981 7.97514921 14.26171773 5.5234375 16.671875 C4.853125 17.33574219 4.1828125 17.99960938 3.4921875 18.68359375 C2.79351562 19.36550781 2.09484375 20.04742187 1.375 20.75 C0.66859375 21.44738281 -0.0378125 22.14476562 -0.765625 22.86328125 C-2.50598703 24.58012488 -4.25084981 26.29211832 -6 28 C-9.18086518 26.49053489 -11.29869906 24.92058175 -13.75 22.375 C-14.36359375 21.74335938 -14.9771875 21.11171875 -15.609375 20.4609375 C-16.06828125 19.97882813 -16.5271875 19.49671875 -17 19 C-15.60652624 15.84795019 -13.97514921 13.73828227 -11.5234375 11.328125 C-10.51796875 10.33232422 -10.51796875 10.33232422 -9.4921875 9.31640625 C-8.79351562 8.63449219 -8.09484375 7.95257813 -7.375 7.25 C-6.66859375 6.55261719 -5.9621875 5.85523438 -5.234375 5.13671875 C-3.49401297 3.41987512 -1.74915019 1.70788168 0 0 Z " fill="#4187B4" transform="translate(311,190)"/>
</svg>
